<?xml version="1.0" encoding="utf-8"?>
<!-- Generator: Adobe Illustrator 24.0.0, SVG Export Plug-In . SVG Version: 6.00 Build 0)  -->
<svg version="1.1" id="Livello_1" xmlns="http://www.w3.org/2000/svg" xmlns:xlink="http://www.w3.org/1999/xlink" x="0px" y="0px"
	 viewBox="0 0 43.8 45.2" style="enable-background:new 0 0 43.8 45.2;" xml:space="preserve">
<style type="text/css">
	.st0{fill:#FFFFFF;}
	.st1{fill:#1D1D1B;}
	.st2{fill:#E30613;}
</style>
<g>
	<rect x="1.9" y="2.6" class="st0" width="40" height="40"/>
	<polygon class="st1" points="17.3,4.9 15.4,4.9 15.4,6.8 17.3,6.8 19.1,6.8 19.1,4.9 	"/>
	<rect x="26.6" y="4.9" class="st1" width="1.9" height="1.9"/>
	<polygon class="st1" points="24.7,6.8 22.8,6.8 22.8,4.9 21,4.9 21,6.8 19.1,6.8 19.1,8.7 19.1,10.5 17.3,10.5 17.3,12.4 
		19.1,12.4 19.1,14.2 21,14.2 22.8,14.2 22.8,12.4 21,12.4 21,10.5 21,8.7 22.8,8.7 24.7,8.7 26.6,8.7 26.6,6.8 	"/>
	<polygon class="st1" points="28.4,10.5 28.4,8.7 26.6,8.7 26.6,10.5 26.6,12.4 28.4,12.4 	"/>
	<polygon class="st1" points="15.4,14.2 15.4,16.1 17.3,16.1 17.3,14.2 17.3,12.4 15.4,12.4 	"/>
	<rect x="24.7" y="12.4" class="st1" width="1.9" height="1.9"/>
	<rect x="17.3" y="25.4" class="st1" width="1.9" height="1.9"/>
	<rect x="4.3" y="16.1" class="st1" width="1.9" height="1.9"/>
	<polygon class="st1" points="24.7,17.9 26.6,17.9 26.6,19.8 28.4,19.8 28.4,17.9 30.3,17.9 30.3,16.1 28.4,16.1 28.4,14.2 
		26.6,14.2 26.6,16.1 24.7,16.1 22.8,16.1 21,16.1 19.1,16.1 19.1,17.9 21,17.9 22.8,17.9 22.8,19.8 24.7,19.8 	"/>
	<polygon class="st1" points="37.7,17.9 37.7,16.1 35.8,16.1 35.8,17.9 35.8,19.8 37.7,19.8 	"/>
	<rect x="4.3" y="19.8" class="st1" width="1.9" height="1.9"/>
	<polygon class="st1" points="13.6,21.7 15.4,21.7 15.4,19.8 17.3,19.8 17.3,17.9 15.4,17.9 13.6,17.9 13.6,16.1 11.7,16.1 
		11.7,17.9 11.7,19.8 13.6,19.8 	"/>
	<rect x="21" y="19.8" class="st1" width="1.9" height="1.9"/>
	<polygon class="st1" points="34,19.8 34,17.9 34,16.1 32.1,16.1 32.1,17.9 32.1,19.8 30.3,19.8 28.4,19.8 28.4,21.7 30.3,21.7 
		32.1,21.7 32.1,23.5 34,23.5 34,21.7 35.8,21.7 35.8,19.8 	"/>
	<polygon class="st1" points="13.6,21.7 11.7,21.7 11.7,19.8 9.9,19.8 9.9,17.9 9.9,16.1 8,16.1 8,17.9 6.1,17.9 6.1,19.8 8,19.8 
		8,21.7 9.9,21.7 9.9,23.5 11.7,23.5 11.7,25.4 13.6,25.4 13.6,23.5 	"/>
	<polygon class="st1" points="17.3,23.5 19.1,23.5 19.1,25.4 21,25.4 21,23.5 21,21.7 19.1,21.7 19.1,19.8 17.3,19.8 17.3,21.7 	"/>
	<polygon class="st1" points="37.7,21.7 35.8,21.7 35.8,23.5 35.8,25.4 34,25.4 34,27.2 35.8,27.2 35.8,29.1 37.7,29.1 37.7,30.9 
		37.7,32.8 39.6,32.8 39.6,30.9 39.6,29.1 39.6,27.2 37.7,27.2 37.7,25.4 39.6,25.4 39.6,23.5 37.7,23.5 	"/>
	<polygon class="st1" points="6.1,23.5 4.3,23.5 4.3,25.4 4.3,27.2 6.1,27.2 6.1,29.1 8,29.1 8,27.2 8,25.4 6.1,25.4 	"/>
	<rect x="8" y="23.5" class="st1" width="1.9" height="1.9"/>
	<polygon class="st1" points="28.4,23.5 28.4,21.7 26.6,21.7 24.7,21.7 22.8,21.7 22.8,23.5 22.8,25.4 24.7,25.4 24.7,23.5 
		26.6,23.5 26.6,25.4 28.4,25.4 28.4,27.2 30.3,27.2 30.3,25.4 32.1,25.4 32.1,23.5 30.3,23.5 	"/>
	<rect x="9.9" y="25.4" class="st1" width="1.9" height="1.9"/>
	<polygon class="st1" points="15.4,25.4 13.6,25.4 13.6,27.2 13.6,29.1 15.4,29.1 15.4,30.9 15.4,32.8 17.3,32.8 17.3,30.9 
		17.3,29.1 17.3,27.2 15.4,27.2 	"/>
	<rect x="21" y="25.4" class="st1" width="1.9" height="1.9"/>
	<rect x="19.1" y="27.2" class="st1" width="1.9" height="1.9"/>
	<polygon class="st1" points="26.6,30.9 26.6,29.1 26.6,27.2 24.7,27.2 24.7,29.1 22.8,29.1 22.8,30.9 24.7,30.9 	"/>
	<rect x="19.1" y="30.9" class="st1" width="1.9" height="1.9"/>
	<rect x="22.8" y="32.8" class="st1" width="1.9" height="1.9"/>
	<path class="st1" d="M28,28.6h4.6v4.6H28V28.6z M34,32.8v-5.6h-7.5v7.5h1.9v1.8h1.9v-1.8h1.9v1.8H34v-1.8h0v0h1.8v1.9h1.9h1.9v-1.9
		h-1.9v-1.9h-1.9H34z"/>
	<polygon class="st1" points="17.3,36.5 17.3,38.4 19.1,38.4 19.1,36.5 19.1,34.6 19.1,32.8 17.3,32.8 17.3,34.6 	"/>
	<polygon class="st1" points="24.7,36.5 24.7,38.4 26.6,38.4 28.4,38.4 28.4,36.5 26.6,36.5 	"/>
	<rect x="15.4" y="38.4" class="st1" width="1.9" height="1.9"/>
	<polygon class="st1" points="21,40.2 22.8,40.2 22.8,38.4 21,38.4 19.1,38.4 19.1,40.2 	"/>
	<polygon class="st1" points="35.8,38.4 35.8,40.2 37.7,40.2 39.6,40.2 39.6,38.4 37.7,38.4 	"/>
	<rect x="29.4" y="30" class="st1" width="1.9" height="1.9"/>
	<path class="st1" d="M12.2,12.8H5.7V6.3h6.5V12.8z M13.6,4.9H4.3v9.3h9.3V4.9z"/>
	<rect x="7.1" y="7.7" class="st2" width="3.7" height="3.7"/>
	<path class="st1" d="M38.2,12.8h-6.5V6.3h6.5V12.8z M30.3,14.2h9.3V4.9h-9.3V14.2z"/>
	<rect x="33.1" y="7.7" class="st2" width="3.7" height="3.7"/>
	<path class="st1" d="M5.7,32.3h6.5v6.5H5.7V32.3z M4.3,40.2h9.3V31H4.3V40.2z"/>
	<rect x="7.1" y="33.7" class="st2" width="3.7" height="3.7"/>
</g>
</svg>
