<?xml version="1.0" encoding="utf-8"?>
<!-- Generator: Adobe Illustrator 22.1.0, SVG Export Plug-In . SVG Version: 6.00 Build 0)  -->
<svg version="1.0" id="Capa_1" xmlns="http://www.w3.org/2000/svg" xmlns:xlink="http://www.w3.org/1999/xlink" x="0px" y="0px"
	 viewBox="0 0 64 64" style="enable-background:new 0 0 64 64;" xml:space="preserve">
<style type="text/css">
	.st0{fill:#15978B;}
	.st1{fill:#555555;}
</style>
<g>
	<path class="st0" d="M39.4,11.8H25.2c-1.7,0-3-0.1-3,1.5v16.4c0,1.7,1.3,3,3,3h14.2c1.7,0,3-1.4,3-3V13.3
		C42.4,11.6,41,11.8,39.4,11.8z"/>
	<g>
		<path class="st1" d="M32,4.5c-5.6,0-11,1.7-15.6,4.8l0.9,1.3c4.3-3,9.4-4.5,14.7-4.5c8.5,0,16.5,4.2,21.4,11.3l0.8,1.3l1.4-0.8
			l-0.9-1.4C49.6,8.9,41.1,4.5,32,4.5z"/>
		<path class="st1" d="M15.1,10.3c-3.2,2.5-5.9,5.8-7.7,9.4c-1.9,3.8-2.9,8-2.9,12.3v19.6h1.6V32c0-8,3.6-15.5,10-20.4l1.3-0.9
			l-0.9-1.3L15.1,10.3z"/>
		<path class="st1" d="M4.5,51.3h1.6v8.2H4.5V51.3z"/>
		<path class="st1" d="M55.6,17.8l-1.4,0.8c2.4,4,3.7,8.6,3.7,13.3v27.6h1.6V32C59.5,27,58.1,22.1,55.6,17.8z"/>
		<path class="st1" d="M47.3,46.4V25.9h-1.6v20.5c0,1.3-1.1,2.4-2.4,2.4H20.7c-1.3,0-2.4-1.1-2.4-2.4v-7.8h-1.6v7.8
			c0,2,1.4,3.6,3.3,4l-4.7,8.3l1.4,0.8l5.1-9.1h2.5L20,58.7l1.4,0.7l1.9-3.7h6.4v-1.6h-5.6l2-3.8h11.7l2,3.8H29.3v1.6h11.4l1.9,3.7
			l1.4-0.7l-4.3-8.3h2.5l5.1,9.1l1.4-0.8L44,50.4C45.9,50,47.3,48.4,47.3,46.4z"/>
		<path class="st1" d="M16.7,18.4v20.5h1.6V18.4c0-2,1.1-3.8,2.7-4.8v14.5c0,2.8,2.3,5.1,5.1,5.1h0.8v-1.6h-0.8
			c-1.9,0-3.5-1.6-3.5-3.5V12.9c0.4-0.1,0.9-0.2,1.3-0.2h11.8v-1.6H23.9C19.9,11.1,16.7,14.4,16.7,18.4z"/>
		<path class="st1" d="M37.9,31.6H26.8v1.6h11.1c2.8,0,5.1-2.3,5.1-5.1V13.6c1.6,1,2.7,2.8,2.7,4.8V26h1.6v-7.6c0-4-3.3-7.3-7.3-7.3
			h-4.5v1.6h4.5c0.5,0,0.9,0.1,1.3,0.2v15.2C41.4,30,39.8,31.6,37.9,31.6z"/>
		<path class="st1" d="M24,39.5c-1.9,0-3.5,1.6-3.5,3.5c0,1.9,1.6,3.5,3.5,3.5s3.5-1.6,3.5-3.5C27.5,41,26,39.5,24,39.5z M24,44.8
			c-1,0-1.9-0.8-1.9-1.9c0-1,0.8-1.9,1.9-1.9c1,0,1.9,0.8,1.9,1.9C25.9,44,25.1,44.8,24,44.8z"/>
		<path class="st1" d="M40,39.5c-1.9,0-3.5,1.6-3.5,3.5c0,1.9,1.6,3.5,3.5,3.5s3.5-1.6,3.5-3.5C43.5,41,41.9,39.5,40,39.5z M40,44.8
			c-1,0-1.9-0.8-1.9-1.9c0-1,0.8-1.9,1.9-1.9c1,0,1.9,0.8,1.9,1.9C41.8,44,41,44.8,40,44.8z"/>
		<path class="st1" d="M23.2,35.9h1.6v1.6h-1.6V35.9z"/>
		<path class="st1" d="M39.2,35.9h1.6v1.6h-1.6V35.9z"/>
		<path class="st1" d="M27.8,25.8l-1.3-0.9l0.9-1.3l1.3,0.9L27.8,25.8z M29.7,23.1l-1.3-0.9l2.5-3.6l1.3,0.9L29.7,23.1z"/>
		<path class="st1" d="M33.2,25.8l-1.3-0.9l0.9-1.3l1.3,0.9L33.2,25.8z M35,23.1l-1.3-0.9l2.5-3.6l1.3,0.9L35,23.1z"/>
	</g>
	<path class="st0" d="M24,44.8c-1,0-1.9-0.8-1.9-1.9c0-1,0.8-1.9,1.9-1.9c1,0,1.9,0.8,1.9,1.9C25.9,44,25.1,44.8,24,44.8z"/>
	<path class="st0" d="M40,44.8c-1,0-1.9-0.8-1.9-1.9c0-1,0.8-1.9,1.9-1.9c1,0,1.9,0.8,1.9,1.9C41.8,44,41,44.8,40,44.8z"/>
</g>
</svg>
