<?xml version="1.0" encoding="utf-8"?>
<!-- Generator: Adobe Illustrator 22.1.0, SVG Export Plug-In . SVG Version: 6.00 Build 0)  -->
<svg version="1.0" id="Capa_1" xmlns="http://www.w3.org/2000/svg" xmlns:xlink="http://www.w3.org/1999/xlink" x="0px" y="0px"
	 viewBox="0 0 64 64" style="enable-background:new 0 0 64 64;" xml:space="preserve">
<style type="text/css">
	.st0{fill:#15978B;}
	.st1{fill:#555555;}
</style>
<rect x="22.9" y="8.1" class="st0" width="8.8" height="3.4"/>
<path class="st0" d="M27.3,20.9h-8.4v-7.4h16.8V33h-7.4v-3.4h3c0.6,0,1-0.5,1-1c0-0.6-0.5-1-1-1h-3v-3.4h3c0.6,0,1-0.5,1-1
	c0-0.6-0.5-1-1-1h-3v-0.3C28.3,21.3,27.8,20.9,27.3,20.9z"/>
<polygon class="st0" points="45.1,60 28.3,60 28.3,35.8 28.3,35 45.1,35 "/>
<g>
	<g>
		<g>
			<path class="st1" d="M58.3,60h-1.7V7.1c0-0.6-0.5-1-1-1H36.7c-0.6,0-1,0.5-1,1v4.4h-2V7.1c0-0.6-0.5-1-1-1h-4.4V3
				c0-0.6-0.5-1-1-1s-1,0.5-1,1v3h-4.4c-0.6,0-1,0.5-1,1v4.4h-3c-0.6,0-1,0.5-1,1v8.4H8.4c-0.6,0-1,0.5-1,1V60H5.7c-0.6,0-1,0.5-1,1
				s0.5,1,1,1h52.5c0.6,0,1-0.5,1-1C59.3,60.4,58.8,60,58.3,60z M22.9,8.1h8.8v3.4h-8.8V8.1z M19.5,60h-0.7v-1.7c0-0.6-0.5-1-1-1
				s-1,0.5-1,1V60h-0.7v-3.4h3.4V60z M26.3,34v1.7V60h-4.7v-4.4c0-0.6-0.5-1-1-1h-5.4c-0.6,0-1,0.5-1,1V60H9.4v-37h16.8L26.3,34
				L26.3,34z M27.3,20.9h-8.4v-7.4h16.8V33h-7.4v-3.4h3c0.6,0,1-0.5,1-1c0-0.6-0.5-1-1-1h-3v-3.4h3c0.6,0,1-0.5,1-1c0-0.6-0.5-1-1-1
				h-3v-0.3C28.3,21.3,27.8,20.9,27.3,20.9z M45.1,60H28.3V35.8V35h16.8V60z M54.6,60h-7.4V34v-1.3c0-0.6-0.5-1-1-1
				c-0.6,0-1,0.5-1,1V33h-2v-0.3c0-0.6-0.5-1-1-1c-0.6,0-1,0.5-1,1V33h-3.4V12.5V8.1h16.8L54.6,60L54.6,60z"/>
			<path class="st1" d="M32.7,57.9c0.6,0,1-0.5,1-1V38.1c0-0.6-0.5-1-1-1c-0.6,0-1,0.5-1,1v18.9C31.7,57.5,32.1,57.9,32.7,57.9z"/>
			<path class="st1" d="M36.7,57.9c0.6,0,1-0.5,1-1V38.1c0-0.6-0.5-1-1-1c-0.6,0-1,0.5-1,1v18.9C35.7,57.5,36.2,57.9,36.7,57.9z"/>
			<path class="st1" d="M40.8,57.9c0.6,0,1-0.5,1-1V38.1c0-0.6-0.5-1-1-1c-0.6,0-1,0.5-1,1v18.9C39.7,57.5,40.2,57.9,40.8,57.9z"/>
			<path class="st1" d="M42.1,14.8c0.6,0,1-0.5,1-1v-1.3c0-0.6-0.5-1-1-1c-0.6,0-1,0.5-1,1v1.3C41.1,14.4,41.5,14.8,42.1,14.8z"/>
			<path class="st1" d="M46.1,14.8c0.6,0,1-0.5,1-1v-1.3c0-0.6-0.5-1-1-1c-0.6,0-1,0.5-1,1v1.3C45.1,14.4,45.6,14.8,46.1,14.8z"/>
			<path class="st1" d="M50.2,14.8c0.6,0,1-0.5,1-1v-1.3c0-0.6-0.5-1-1-1c-0.6,0-1,0.5-1,1v1.3C49.2,14.4,49.6,14.8,50.2,14.8z"/>
			<path class="st1" d="M42.1,21.6c0.6,0,1-0.5,1-1v-1.3c0-0.6-0.5-1-1-1c-0.6,0-1,0.5-1,1v1.3C41.1,21.1,41.5,21.6,42.1,21.6z"/>
			<path class="st1" d="M46.1,21.6c0.6,0,1-0.5,1-1v-1.3c0-0.6-0.5-1-1-1c-0.6,0-1,0.5-1,1v1.3C45.1,21.1,45.6,21.6,46.1,21.6z"/>
			<path class="st1" d="M50.2,21.6c0.6,0,1-0.5,1-1v-1.3c0-0.6-0.5-1-1-1c-0.6,0-1,0.5-1,1v1.3C49.2,21.1,49.6,21.6,50.2,21.6z"/>
			<path class="st1" d="M42.1,28.3c0.6,0,1-0.5,1-1v-1.3c0-0.6-0.5-1-1-1c-0.6,0-1,0.5-1,1v1.3C41.1,27.8,41.5,28.3,42.1,28.3z"/>
			<path class="st1" d="M46.1,28.3c0.6,0,1-0.5,1-1v-1.3c0-0.6-0.5-1-1-1c-0.6,0-1,0.5-1,1v1.3C45.1,27.8,45.6,28.3,46.1,28.3z"/>
			<path class="st1" d="M50.2,28.3c0.6,0,1-0.5,1-1v-1.3c0-0.6-0.5-1-1-1c-0.6,0-1,0.5-1,1v1.3C49.2,27.8,49.6,28.3,50.2,28.3z"/>
			<path class="st1" d="M13.8,31c0.6,0,1-0.5,1-1v-1.3c0-0.6-0.5-1-1-1c-0.6,0-1,0.5-1,1V30C12.8,30.5,13.3,31,13.8,31z"/>
			<path class="st1" d="M17.9,31c0.6,0,1-0.5,1-1v-1.3c0-0.6-0.5-1-1-1s-1,0.5-1,1V30C16.8,30.5,17.3,31,17.9,31z"/>
			<path class="st1" d="M21.9,31c0.6,0,1-0.5,1-1v-1.3c0-0.6-0.5-1-1-1s-1,0.5-1,1V30C20.9,30.5,21.3,31,21.9,31z"/>
			<path class="st1" d="M13.8,37.7c0.6,0,1-0.5,1-1v-1.3c0-0.6-0.5-1-1-1c-0.6,0-1,0.5-1,1v1.3C12.8,37.3,13.3,37.7,13.8,37.7z"/>
			<path class="st1" d="M17.9,37.7c0.6,0,1-0.5,1-1v-1.3c0-0.6-0.5-1-1-1s-1,0.5-1,1v1.3C16.8,37.3,17.3,37.7,17.9,37.7z"/>
			<path class="st1" d="M21.9,37.7c0.6,0,1-0.5,1-1v-1.3c0-0.6-0.5-1-1-1s-1,0.5-1,1v1.3C20.9,37.3,21.3,37.7,21.9,37.7z"/>
			<path class="st1" d="M13.8,44.5c0.6,0,1-0.5,1-1v-1.3c0-0.6-0.5-1-1-1c-0.6,0-1,0.5-1,1v1.3C12.8,44,13.3,44.5,13.8,44.5z"/>
			<path class="st1" d="M17.9,44.5c0.6,0,1-0.5,1-1v-1.3c0-0.6-0.5-1-1-1s-1,0.5-1,1v1.3C16.8,44,17.3,44.5,17.9,44.5z"/>
			<path class="st1" d="M21.9,44.5c0.6,0,1-0.5,1-1v-1.3c0-0.6-0.5-1-1-1s-1,0.5-1,1v1.3C20.9,44,21.3,44.5,21.9,44.5z"/>
			<path class="st1" d="M13.8,51.2c0.6,0,1-0.5,1-1v-1.3c0-0.6-0.5-1-1-1c-0.6,0-1,0.5-1,1v1.3C12.8,50.7,13.3,51.2,13.8,51.2z"/>
			<path class="st1" d="M17.9,51.2c0.6,0,1-0.5,1-1v-1.3c0-0.6-0.5-1-1-1s-1,0.5-1,1v1.3C16.8,50.7,17.3,51.2,17.9,51.2z"/>
			<path class="st1" d="M21.9,51.2c0.6,0,1-0.5,1-1v-1.3c0-0.6-0.5-1-1-1s-1,0.5-1,1v1.3C20.9,50.7,21.3,51.2,21.9,51.2z"/>
			<path class="st1" d="M50.2,35c0.6,0,1-0.5,1-1v-1.3c0-0.6-0.5-1-1-1c-0.6,0-1,0.5-1,1V34C49.2,34.6,49.6,35,50.2,35z"/>
			<path class="st1" d="M50.2,41.8c0.6,0,1-0.5,1-1v-1.3c0-0.6-0.5-1-1-1c-0.6,0-1,0.5-1,1v1.3C49.2,41.3,49.6,41.8,50.2,41.8z"/>
			<path class="st1" d="M50.2,48.5c0.6,0,1-0.5,1-1v-1.3c0-0.6-0.5-1-1-1c-0.6,0-1,0.5-1,1v1.3C49.2,48.1,49.6,48.5,50.2,48.5z"/>
			<path class="st1" d="M50.2,55.2c0.6,0,1-0.5,1-1v-1.3c0-0.6-0.5-1-1-1c-0.6,0-1,0.5-1,1v1.3C49.2,54.8,49.6,55.2,50.2,55.2z"/>
			<path class="st1" d="M32.3,17.9c0-0.6-0.5-1-1-1h-8.1c-0.6,0-1,0.5-1,1c0,0.6,0.5,1,1,1h8.1C31.9,18.9,32.3,18.4,32.3,17.9z"/>
		</g>
	</g>
</g>
</svg>
