<?xml version="1.0" encoding="utf-8"?>
<!-- Generator: Adobe Illustrator 22.1.0, SVG Export Plug-In . SVG Version: 6.00 Build 0)  -->
<svg version="1.0" id="Capa_1" xmlns="http://www.w3.org/2000/svg" xmlns:xlink="http://www.w3.org/1999/xlink" x="0px" y="0px"
	 viewBox="0 0 64 64" style="enable-background:new 0 0 64 64;" xml:space="preserve">
<style type="text/css">
	.st0{fill:#555555;}
	.st1{fill:#15978B;}
</style>
<g>
	<g>
		<g>
			<path class="st0" d="M55.8,4H26c-2.5,0.1-4.4,2.2-4.2,4.7v38.3c0,0,0,0,0,0c0,0.1,0,0.2,0.1,0.3l0,0l0,0l2.2,5.1
				c0.3,0.6,0.9,1.1,1.6,1.1h0.8v3.7c0,0.3,0.1,0.6,0.2,0.9H15.2V41.3c0-1.5-1.3-2.8-2.8-2.8V22.6c3.9-0.5,6.8-3.9,6.5-7.9
				s-3.5-7-7.5-7s-7.2,3.1-7.5,7c-0.2,3.9,2.6,7.4,6.5,7.9v15.9c-1.5,0-2.8,1.3-2.8,2.8v16.8H4.9c-0.5,0-0.9,0.4-0.9,0.9
				C4,59.6,4.4,60,4.9,60h54.1c0.5,0,0.9-0.4,0.9-0.9c0-0.5-0.4-0.9-0.9-0.9h-3.9c0.1-0.3,0.2-0.6,0.2-0.9v-3.7h0.8
				c0.7,0,1.3-0.4,1.6-1.1l2.2-5.1l0,0c0,0,0,0,0,0c0-0.1,0.1-0.2,0.1-0.3c0,0,0,0,0,0V8.7C60.1,6.2,58.2,4.1,55.8,4z M5.9,15.2
				c0-3.1,2.5-5.6,5.6-5.6s5.6,2.5,5.6,5.6s-2.5,5.6-5.6,5.6C8.4,20.8,5.9,18.3,5.9,15.2z M13.3,58.1H9.6V41.3
				c0-0.5,0.4-0.9,0.9-0.9h1.9c0.5,0,0.9,0.4,0.9,0.9V58.1z M32,57.2c0,0.5-0.4,0.9-0.9,0.9h-1.9c-0.5,0-0.9-0.4-0.9-0.9v-3.7H32
				V57.2z M33.7,58.1c0.1-0.3,0.2-0.6,0.2-0.9v-3.7h14v3.7c0,0.3,0.1,0.6,0.2,0.9H33.7z M53.5,57.2c0,0.5-0.4,0.9-0.9,0.9h-1.9
				c-0.5,0-0.9-0.4-0.9-0.9v-3.7h3.7V57.2L53.5,57.2z M56,51.6H25.7l-1.6-3.7h33.5L56,51.6z M36.7,46v-1.9c0-0.5,0.4-0.9,0.9-0.9
				h6.5c0.5,0,0.9,0.4,0.9,0.9V46H36.7z M58.1,8.7V46H46.9v-1.9c0-1.5-1.3-2.8-2.8-2.8h-6.5c-1.5,0-2.8,1.3-2.8,2.8V46H23.6V8.7
				c-0.1-1.4,1-2.7,2.4-2.8h29.8C57.2,6,58.2,7.2,58.1,8.7z"/>
			<path class="st0" d="M53.5,7.7H28.3c-1.5,0-2.8,1.3-2.8,2.8v0.9c0,1.5,1.3,2.8,2.8,2.8h25.2c1.5,0,2.8-1.3,2.8-2.8v-0.9
				C56.3,9,55,7.7,53.5,7.7z M54.4,11.5c0,0.5-0.4,0.9-0.9,0.9H28.3c-0.5,0-0.9-0.4-0.9-0.9v-0.9c0-0.5,0.4-0.9,0.9-0.9h25.2
				c0.5,0,0.9,0.4,0.9,0.9V11.5z"/>
			<path class="st0" d="M29.2,36.7c-2.1,0-3.7,1.7-3.7,3.7c0,2.1,1.7,3.7,3.7,3.7c2.1,0,3.7-1.7,3.7-3.7
				C32.9,38.3,31.3,36.7,29.2,36.7z M29.2,42.3c-1,0-1.9-0.8-1.9-1.9c0-1,0.8-1.9,1.9-1.9c1,0,1.9,0.8,1.9,1.9
				C31.1,41.4,30.2,42.3,29.2,42.3z"/>
			<path class="st0" d="M52.5,36.7c-2.1,0-3.7,1.7-3.7,3.7s1.7,3.7,3.7,3.7c2.1,0,3.7-1.7,3.7-3.7C56.3,38.3,54.6,36.7,52.5,36.7z
				 M52.5,42.3c-1,0-1.9-0.8-1.9-1.9c0-1,0.8-1.9,1.9-1.9c1,0,1.9,0.8,1.9,1.9C54.4,41.4,53.6,42.3,52.5,42.3z"/>
			<path class="st0" d="M53.5,16.1H28.3c-1.5,0-2.8,1.3-2.8,2.8V32c0,1.5,1.3,2.8,2.8,2.8h25.2c1.5,0,2.8-1.3,2.8-2.8V18.9
				C56.3,17.4,55,16.1,53.5,16.1z M54.4,32c0,0.5-0.4,0.9-0.9,0.9H28.3c-0.5,0-0.9-0.4-0.9-0.9V18.9c0-0.5,0.4-0.9,0.9-0.9h25.2
				c0.5,0,0.9,0.4,0.9,0.9V32z"/>
		</g>
	</g>
</g>
<path class="st1" d="M13.3,58.1H9.6V41.3c0-0.5,0.4-0.9,0.9-0.9h1.9c0.5,0,0.9,0.4,0.9,0.9V58.1z"/>
<path class="st1" d="M54.4,11.5c0,0.5-0.4,0.9-0.9,0.9H28.3c-0.5,0-0.9-0.4-0.9-0.9v-0.9c0-0.5,0.4-0.9,0.9-0.9h25.2
	c0.5,0,0.9,0.4,0.9,0.9V11.5z"/>
<path class="st1" d="M29.2,42.3c-1,0-1.9-0.8-1.9-1.9c0-1,0.8-1.9,1.9-1.9c1,0,1.9,0.8,1.9,1.9C31.1,41.4,30.2,42.3,29.2,42.3z"/>
<path class="st1" d="M52.5,42.3c-1,0-1.9-0.8-1.9-1.9c0-1,0.8-1.9,1.9-1.9c1,0,1.9,0.8,1.9,1.9C54.4,41.4,53.6,42.3,52.5,42.3z"/>
<path class="st1" d="M36.7,46v-1.9c0-0.5,0.4-0.9,0.9-0.9h6.5c0.5,0,0.9,0.4,0.9,0.9V46H36.7z"/>
</svg>
