<?xml version="1.0" encoding="utf-8"?>
<!-- Generator: Adobe Illustrator 24.0.0, SVG Export Plug-In . SVG Version: 6.00 Build 0)  -->
<svg version="1.1" id="Livello_1" xmlns="http://www.w3.org/2000/svg" xmlns:xlink="http://www.w3.org/1999/xlink" x="0px" y="0px"
	 viewBox="0 0 51 45" style="enable-background:new 0 0 51 45;" xml:space="preserve">
<style type="text/css">
	.st0{clip-path:url(#SVGID_2_);fill:#E30613;}
	.st1{clip-path:url(#SVGID_2_);fill:none;stroke:#1D1D1B;stroke-width:1.96;stroke-linecap:round;}
	.st2{fill:none;stroke:#1D1D1B;stroke-width:1.96;stroke-linecap:round;}
	.st3{fill:none;stroke:#E30613;stroke-width:4.07;stroke-linecap:round;}
	.st4{clip-path:url(#SVGID_4_);fill:none;stroke:#1D1D1B;stroke-width:1.96;stroke-linecap:round;stroke-linejoin:round;}
	.st5{clip-path:url(#SVGID_4_);fill:#1D1D1B;}
	.st6{clip-path:url(#SVGID_4_);fill:none;stroke:#1D1D1B;stroke-width:0.98;stroke-linecap:round;stroke-linejoin:round;}
</style>
<g>
	<defs>
		<rect id="SVGID_1_" x="0.9" y="0.8" width="49.3" height="44.2"/>
	</defs>
	<clipPath id="SVGID_2_">
		<use xlink:href="#SVGID_1_"  style="overflow:visible;"/>
	</clipPath>
	<path class="st0" d="M24.3,29.6c2.9,0,5.2-2.3,5.2-5.2s-2.3-5.2-5.2-5.2s-5.2,2.3-5.2,5.2S21.5,29.6,24.3,29.6"/>
	<path class="st1" d="M39.8,8c-4-3.8-9.5-6.2-15.5-6.2C11.9,1.8,1.8,11.9,1.8,24.3c0,6.2,2.5,11.8,6.6,15.9"/>
	<line class="st1" x1="24.3" y1="2" x2="24.3" y2="8.8"/>
	<line class="st1" x1="2" y1="24.6" x2="8.9" y2="24.6"/>
</g>
<line class="st2" x1="13.3" y1="35.3" x2="8.5" y2="40.1"/>
<line class="st2" x1="13" y1="13.7" x2="8.2" y2="8.9"/>
<line class="st3" x1="33.6" y1="15.4" x2="26.2" y2="22.8"/>
<g>
	<defs>
		<rect id="SVGID_3_" x="0.9" y="0.8" width="49.3" height="44.2"/>
	</defs>
	<clipPath id="SVGID_4_">
		<use xlink:href="#SVGID_3_"  style="overflow:visible;"/>
	</clipPath>
	<polyline class="st4" points="16.6,44.1 28,32.8 34.3,39.1 47.5,25.9 	"/>
	<path class="st5" d="M49.6,25c0.2-0.8-0.3-1.3-1.1-1.1l-5.8,1.6c-0.8,0.2-1,0.9-0.4,1.5l4.3,4.3c0.6,0.6,1.3,0.4,1.5-0.4L49.6,25z"
		/>
	<path class="st6" d="M49.6,25c0.2-0.8-0.3-1.3-1.1-1.1l-5.8,1.6c-0.8,0.2-1,0.9-0.4,1.5l4.3,4.3c0.6,0.6,1.3,0.4,1.5-0.4L49.6,25z"
		/>
</g>
</svg>
