<?xml version="1.0" encoding="utf-8"?>
<!-- Generator: Adobe Illustrator 24.0.0, SVG Export Plug-In . SVG Version: 6.00 Build 0)  -->
<svg version="1.1" id="Livello_1" xmlns="http://www.w3.org/2000/svg" xmlns:xlink="http://www.w3.org/1999/xlink" x="0px" y="0px"
	 viewBox="0 0 31 44" style="enable-background:new 0 0 31 44;" xml:space="preserve">
<style type="text/css">
	.st0{clip-path:url(#SVGID_2_);fill:none;stroke:#1D1D1B;stroke-width:1.4;}
	.st1{clip-path:url(#SVGID_2_);fill:none;stroke:#1D1D1B;stroke-width:1.2;}
	.st2{clip-path:url(#SVGID_2_);fill:none;stroke:#E30613;stroke-linecap:round;stroke-linejoin:round;}
	.st3{clip-path:url(#SVGID_2_);fill:#FFFFFF;}
</style>
<g>
	<g>
		<defs>
			<rect id="SVGID_1_" x="0.3" y="0.3" width="30" height="43.3"/>
		</defs>
		<clipPath id="SVGID_2_">
			<use xlink:href="#SVGID_1_"  style="overflow:visible;"/>
		</clipPath>
		<path class="st0" d="M14.1,38.3c-1.3,0-2.3,1-2.3,2.3s1,2.3,2.3,2.3h2.3c1.3,0,2.3-1,2.3-2.3s-1-2.3-2.3-2.3H14.1z"/>
		<path class="st1" d="M29.7,15.3c0-8-6.5-14.4-14.4-14.4c-8,0-14.4,6.5-14.4,14.4c0,3.9,1.6,7.5,4.1,10c0,0,0,0,0,0
			c2.4,2.6,3.9,5.9,3.9,9.6h6h0.8h6c0-3.4,1.2-6.5,3.3-9C27.8,23.4,29.7,19.5,29.7,15.3z"/>
		<path class="st2" d="M12.9,33.9V20c0,0-0.6-2.4-2.4-2.4c-1.8,0-1.7,1.5-1.7,1.7s0.6,4,6.6,4"/>
		<path class="st2" d="M17.7,33.9V20c0,0,0.6-2.4,2.4-2.4c1.8,0,1.7,1.5,1.7,1.7s-0.6,4-6.6,4"/>
		<path class="st3" d="M8.2,33.7c-0.4,0-0.8,0.4-0.8,0.8v1.9c0,0.4,0.4,0.8,0.8,0.8h14.1c0.4,0,0.8-0.4,0.8-0.8v-1.9
			c0-0.4-0.4-0.8-0.8-0.8H8.2z"/>
		<path class="st0" d="M8.2,33.7c-0.4,0-0.8,0.4-0.8,0.8v1.9c0,0.4,0.4,0.8,0.8,0.8h14.1c0.4,0,0.8-0.4,0.8-0.8v-1.9
			c0-0.4-0.4-0.8-0.8-0.8H8.2z"/>
		<path class="st3" d="M10,37.3c-0.4,0-0.8,0.4-0.8,0.8V40c0,0.4,0.4,0.8,0.8,0.8h10.6c0.4,0,0.8-0.4,0.8-0.8v-1.9
			c0-0.4-0.4-0.8-0.8-0.8H10z"/>
		<path class="st0" d="M10,37.3c-0.4,0-0.8,0.4-0.8,0.8V40c0,0.4,0.4,0.8,0.8,0.8h10.6c0.4,0,0.8-0.4,0.8-0.8v-1.9
			c0-0.4-0.4-0.8-0.8-0.8H10z"/>
	</g>
</g>
</svg>
