<?xml version="1.0" encoding="utf-8"?>
<!-- Generator: Adobe Illustrator 22.1.0, SVG Export Plug-In . SVG Version: 6.00 Build 0)  -->
<svg version="1.0" id="Capa_1" xmlns="http://www.w3.org/2000/svg" xmlns:xlink="http://www.w3.org/1999/xlink" x="0px" y="0px"
	 viewBox="0 0 64 64" style="enable-background:new 0 0 64 64;" xml:space="preserve">
<style type="text/css">
	.st0{fill:#555555;}
	.st1{fill:#15978B;}
</style>
<g>
	<g>
		<path class="st0" d="M16.4,19.8L9.7,31.5c-0.7,1.2,0.2,2.7,1.6,2.7h13.5c1.4,0,2.2-1.5,1.6-2.7l-6.7-11.7
			c-0.3-0.6-0.9-0.9-1.6-0.9C17.3,18.9,16.8,19.3,16.4,19.8z M11.1,32.5c0-0.1,0-0.1,0-0.1l6.7-11.7c0.1-0.1,0.2-0.1,0.2,0l6.7,11.7
			c0,0.1,0,0.2-0.1,0.2H11.3C11.2,32.6,11.2,32.6,11.1,32.5L11.1,32.5z"/>
		<path class="st0" d="M24.7,34.5H11.3c-0.7,0-1.4-0.4-1.8-1.1c-0.4-0.7-0.4-1.4,0-2.1l6.7-11.7c0.4-0.7,1.1-1.1,1.8-1.1
			s1.4,0.4,1.8,1.1l6.7,11.7c0.4,0.6,0.4,1.4,0,2.1C26.1,34.1,25.5,34.5,24.7,34.5z M16.7,20L10,31.7c-0.3,0.5-0.3,1,0,1.5
			c0.3,0.5,0.8,0.8,1.3,0.8h13.5c0.5,0,1-0.3,1.3-0.8c0.3-0.5,0.3-1,0-1.5L19.3,20c-0.3-0.5-0.8-0.8-1.3-0.8S17,19.5,16.7,20z
			 M24.7,32.9H11.3c-0.2,0-0.3-0.1-0.4-0.2c-0.1-0.1-0.1-0.3,0-0.4l6.7-11.7c0.2-0.2,0.3-0.2,0.4-0.2s0.2,0,0.3,0.2l6.8,11.8
			c0.1,0.2,0.1,0.4,0,0.5C25,32.8,24.8,32.9,24.7,32.9z M11.4,32.5L11.4,32.5C11.4,32.5,11.4,32.5,11.4,32.5z M11.5,32.3h12.9L18,21
			L11.5,32.3z"/>
	</g>
	<g>
		<path class="st0" d="M7,11.4c-1.8,0-3.3,1.5-3.3,3.3v29.5c0,1.8,1.5,3.3,3.3,3.3h2.6c0.2,2.8,2.6,5,5.4,5s5.2-2.2,5.4-5h21.8
			c0.2,2.8,2.6,5,5.4,5s5.2-2.2,5.4-5H57c1.8,0,3.3-1.5,3.3-3.3v-10c0-1.6-1.1-2.9-2.6-3.2l-7-1.6L45.8,18L44,13.5
			c-0.5-1.3-1.7-2.1-3.1-2.1h-27c-1.1,0-1.1,1.7,0,1.7h27c0.7,0,1.3,0.4,1.5,1l1.4,3.4h-9.7c-1.7,0-3.1,1.4-3.1,3.1v7.2
			c0,1.7,1.4,3.1,3.1,3.1h15.7c0.1,0,0.2,0,0.4,0l7.1,1.6c0.8,0.2,1.3,0.8,1.3,1.6v7.5H40.7c-1.1,0-1.1,1.7,0,1.7h3
			C43,44.1,42.5,45,42.3,46h-22c-0.2-1-0.7-1.9-1.4-2.6h16.7c1.1,0,1.1-1.7,0-1.7H5.4v-27c0-0.9,0.7-1.7,1.7-1.7h2.2
			c1.1,0,1.1-1.7,0-1.7L7,11.4L7,11.4z M34.1,29.3c-0.8,0-1.5-0.7-1.5-1.5V22l3.1,7.3H34.1L34.1,29.3z M33.3,19.4
			c0.2-0.1,0.5-0.2,0.8-0.2h4.4l4.3,10.2h-5.3L33.3,19.4L33.3,19.4z M48.9,29.3h-4.3l-4.3-10.2h4.2L48.9,29.3z M57,46h-4.1
			c-0.2-1-0.7-1.9-1.4-2.6h7.1v0.9C58.6,45.2,57.9,46,57,46z M43.8,47.2c0-2.1,1.7-3.8,3.8-3.8s3.8,1.7,3.8,3.8
			c0,2.1-1.7,3.8-3.8,3.8S43.8,49.2,43.8,47.2z M11.3,47.2c0-2.1,1.7-3.8,3.8-3.8s3.8,1.7,3.8,3.8c0,2.1-1.7,3.8-3.8,3.8
			S11.3,49.2,11.3,47.2z M7,46c-0.9,0-1.7-0.7-1.7-1.7v-0.9h5.7C10.4,44.1,10,45,9.7,46H7L7,46z"/>
		<path class="st0" d="M47.6,52.9c-2.9,0-5.3-2.2-5.7-5H20.7c-0.4,2.8-2.8,5-5.7,5c-2.9,0-5.3-2.2-5.7-5H7c-2,0-3.6-1.6-3.6-3.6
			V14.7c0-2,1.6-3.6,3.6-3.6h2.2c0.7,0,1.1,0.6,1.1,1.1c0,0.6-0.4,1.1-1.1,1.1H7c-0.8,0-1.4,0.6-1.4,1.4v26.7h29.9
			c0.7,0,1.1,0.6,1.1,1.1c0,0.3-0.1,0.6-0.3,0.8c-0.2,0.2-0.5,0.4-0.8,0.4h-16c0.4,0.6,0.8,1.2,1,2h21.6c0.2-0.7,0.5-1.4,1-2h-2.4
			c-0.7,0-1.1-0.6-1.1-1.1c0-0.6,0.4-1.1,1.1-1.1h17.6v-7.2c0-0.6-0.4-1.2-1.1-1.3l-7.1-1.6c-0.1,0-0.2,0-0.3,0H34.1
			c-1.9,0-3.4-1.5-3.4-3.4v-7.2c0-1.9,1.5-3.4,3.4-3.4h9.3l-1.2-3c-0.2-0.5-0.7-0.9-1.3-0.9h-27c-0.7,0-1.1-0.6-1.1-1.1
			c0-0.6,0.4-1.1,1.1-1.1h27c1.5,0,2.8,0.9,3.4,2.3l1.8,4.5l4.8,11.3l6.8,1.5c1.7,0.4,2.8,1.8,2.8,3.5v10c0,2-1.6,3.6-3.6,3.6h-3.7
			C52.9,50.7,50.5,52.9,47.6,52.9z M20.1,47.3h22.3l0,0.3c0.2,2.6,2.5,4.7,5.1,4.7s4.9-2.1,5.1-4.7l0-0.3H57c1.7,0,3-1.4,3-3v-10
			c0-1.4-1-2.6-2.4-3l-7.1-1.6l-0.1-0.1l-4.9-11.4l-1.8-4.5c-0.5-1.1-1.6-1.9-2.8-1.9h-27c-0.4,0-0.5,0.3-0.5,0.5
			c0,0.2,0.1,0.5,0.5,0.5h27c0.8,0,1.5,0.5,1.8,1.2l1.5,3.8H34.1c-1.6,0-2.8,1.3-2.8,2.8v7.2c0,1.6,1.3,2.8,2.8,2.8h15.7
			c0.1,0,0.3,0,0.4,0l7.1,1.6c0.9,0.2,1.5,1,1.5,1.9V42H40.7c-0.4,0-0.5,0.3-0.5,0.5c0,0.2,0.1,0.5,0.5,0.5h3.7l-0.5,0.5
			c-0.6,0.7-1.1,1.5-1.3,2.4l-0.1,0.2H20.1L20,46c-0.2-0.9-0.7-1.7-1.3-2.4l-0.5-0.5h17.4c0.4,0,0.5-0.3,0.5-0.5S36,42,35.6,42H5.1
			V14.7c0-1.1,0.9-2,2-2h2.2c0.4,0,0.5-0.3,0.5-0.5c0-0.2-0.1-0.5-0.5-0.5H7c-1.7,0-3,1.4-3,3v29.5c0,1.7,1.4,3,3,3h2.8l0,0.3
			c0.2,2.6,2.5,4.7,5.1,4.7c2.6,0,4.9-2.1,5.1-4.7L20.1,47.3z M47.6,51.2c-2.2,0-4.1-1.8-4.1-4.1s1.8-4.1,4.1-4.1s4.1,1.8,4.1,4.1
			S49.8,51.2,47.6,51.2z M47.6,43.7c-1.9,0-3.5,1.6-3.5,3.5s1.6,3.5,3.5,3.5s3.5-1.6,3.5-3.5S49.5,43.7,47.6,43.7z M15,51.2
			c-2.2,0-4.1-1.8-4.1-4.1s1.8-4.1,4.1-4.1s4.1,1.8,4.1,4.1S17.3,51.2,15,51.2z M15,43.7c-1.9,0-3.5,1.6-3.5,3.5s1.6,3.5,3.5,3.5
			s3.5-1.6,3.5-3.5S16.9,43.7,15,43.7z M57,46.3h-4.3L52.6,46c-0.2-0.9-0.7-1.7-1.3-2.4l-0.5-0.5h8.1v1.2C58.9,45.4,58,46.3,57,46.3
			z M53.1,45.7H57c0.8,0,1.4-0.6,1.4-1.4v-0.6h-6.2C52.6,44.3,52.9,44.9,53.1,45.7z M10,46.3H7c-1.1,0-2-0.9-2-2v-1.2h6.7l-0.5,0.5
			c-0.6,0.7-1.1,1.5-1.3,2.4L10,46.3z M5.7,43.7v0.6c0,0.8,0.6,1.4,1.4,1.4h2.5c0.2-0.7,0.5-1.4,1-2H5.7z M49.3,29.6h-4.9l-4.5-10.8
			h4.9L49.3,29.6z M44.8,29h3.6l-4.1-9.6h-3.6L44.8,29z M43.2,29.6h-5.9l-4.4-10.3l0.2-0.1c0.3-0.2,0.6-0.3,0.9-0.3h4.6L43.2,29.6z
			 M37.7,29h4.6l-4-9.6h-4.2c-0.1,0-0.3,0-0.4,0.1L37.7,29z M36.1,29.6h-2c-1,0-1.8-0.8-1.8-1.8v-7.3L36.1,29.6z M32.9,23.5v4.3
			c0,0.6,0.5,1.2,1.2,1.2h1.1L32.9,23.5z"/>
	</g>
	<g>
		<path class="st0" d="M47.6,48c1.1,0,1.1-1.7,0-1.7C46.5,46.3,46.5,48,47.6,48z"/>
		<path class="st0" d="M47.6,48.3c-0.7,0-1.1-0.6-1.1-1.1c0-0.3,0.1-0.6,0.3-0.8c0.2-0.2,0.5-0.4,0.8-0.4c0.7,0,1.1,0.6,1.1,1.1
			c0,0.3-0.1,0.6-0.3,0.8C48.2,48.2,47.9,48.3,47.6,48.3z M47.6,46.6c-0.2,0-0.3,0.1-0.4,0.2c-0.1,0.1-0.1,0.2-0.1,0.4
			c0,0.2,0.1,0.5,0.5,0.5c0.2,0,0.3-0.1,0.4-0.2c0.1-0.1,0.1-0.2,0.1-0.4C48.1,46.9,48,46.6,47.6,46.6z"/>
	</g>
	<g>
		<path class="st0" d="M15,48c1.1,0,1.1-1.7,0-1.7C13.9,46.3,13.9,48,15,48z"/>
		<path class="st0" d="M15,48.3c-0.7,0-1.1-0.6-1.1-1.1c0-0.3,0.1-0.6,0.3-0.8c0.2-0.2,0.5-0.4,0.8-0.4c0.7,0,1.1,0.6,1.1,1.1
			c0,0.3-0.1,0.6-0.3,0.8C15.6,48.2,15.4,48.3,15,48.3z M15,46.6c-0.2,0-0.3,0.1-0.4,0.2c-0.1,0.1-0.1,0.2-0.1,0.4
			c0,0.2,0.1,0.5,0.5,0.5c0.2,0,0.3-0.1,0.4-0.2c0.1-0.1,0.1-0.2,0.1-0.4C15.5,46.9,15.4,46.6,15,46.6z"/>
	</g>
</g>
<polygon class="st1" points="11.5,32.3 24.4,32.3 18,21 "/>
</svg>
