<?xml version="1.0" encoding="utf-8"?>
<!-- Generator: Adobe Illustrator 24.0.0, SVG Export Plug-In . SVG Version: 6.00 Build 0)  -->
<svg version="1.1" id="Livello_1" xmlns="http://www.w3.org/2000/svg" xmlns:xlink="http://www.w3.org/1999/xlink" x="0px" y="0px"
	 viewBox="0 0 65 50" style="enable-background:new 0 0 65 50;" xml:space="preserve">
<style type="text/css">
	.st0{clip-path:url(#SVGID_2_);fill:none;stroke:#1D1D1B;stroke-width:1.45;}
	.st1{clip-path:url(#SVGID_2_);fill:none;stroke:#E30613;stroke-width:2.176;}
	.st2{clip-path:url(#SVGID_2_);fill:#FFFFFF;}
</style>
<g>
	<defs>
		<rect id="SVGID_1_" x="-0.1" y="0.4" width="65.2" height="49"/>
	</defs>
	<clipPath id="SVGID_2_">
		<use xlink:href="#SVGID_1_"  style="overflow:visible;"/>
	</clipPath>
	<path class="st0" d="M41,24.5v-6.3c0-0.7-0.5-1.2-1.2-1.2h-3.4c-0.4-1.3-0.8-2.4-1.5-3.5l2.4-2.4c0.5-0.5,0.5-1.2,0-1.7l-4.5-4.5
		c-0.5-0.5-1.2-0.5-1.7,0l-2.4,2.4c-1.1-0.6-2.3-1.1-3.5-1.5V2.4c0-0.7-0.5-1.2-1.2-1.2h-6.3c-0.7,0-1.2,0.5-1.2,1.2v3.4
		c-1.2,0.4-2.4,0.8-3.5,1.5l-2.4-2.4c-0.5-0.5-1.2-0.5-1.7,0L4.3,9.3c-0.5,0.5-0.5,1.2,0,1.7l2.4,2.4c-0.6,1.1-1.1,2.3-1.5,3.5H1.9
		c-0.7,0-1.2,0.5-1.2,1.2v6.3c0,0.7,0.5,1.2,1.2,1.2h3.4c0.3,1.2,0.8,2.4,1.5,3.5l-2.4,2.4c-0.5,0.5-0.5,1.2,0,1.7l4.5,4.5
		c0.5,0.5,1.2,0.5,1.7,0l2.4-2.4c1.1,0.6,2.3,1.1,3.5,1.5v3.4c0,0.7,0.5,1.2,1.2,1.2H24c0.7,0,1.2-0.5,1.2-1.2v-3.4
		c1.3-0.3,2.4-0.8,3.5-1.5l2.4,2.4c0.5,0.5,1.2,0.5,1.7,0l4.5-4.5c0.5-0.5,0.5-1.2,0-1.7l-2.4-2.4c0.6-1.1,1.1-2.3,1.5-3.5h3.4
		C40.4,25.7,41,25.1,41,24.5z"/>
	<circle class="st1" cx="20.8" cy="21.3" r="9.5"/>
	<path class="st2" d="M46.1,47.6l-3.6-2.4c-0.2-0.1-0.2-0.4-0.1-0.6l1.4-2.1c-0.6-0.7-1.1-1.4-1.4-2.2l-2.5,0.5
		c-0.2,0-0.5-0.1-0.5-0.3l-0.8-4.2c0-0.2,0.1-0.5,0.3-0.5l2.5-0.5c0.1-0.9,0.3-1.7,0.5-2.5L40,31.2c-0.2-0.1-0.2-0.4-0.1-0.6
		l2.5-3.6c0.1-0.2,0.4-0.2,0.6-0.1l2.1,1.4c0.7-0.6,1.4-1,2.2-1.4l-0.5-2.5c0-0.2,0.1-0.5,0.3-0.5l4.3-0.8c0.2,0,0.5,0.1,0.5,0.3
		l0.5,2.5c0.9,0.1,1.7,0.2,2.6,0.5l1.4-2.1c0.1-0.2,0.4-0.2,0.6-0.1l3.6,2.4c0.2,0.1,0.2,0.4,0.1,0.6l-1.4,2.1
		c0.6,0.7,1.1,1.4,1.4,2.2l2.5-0.5c0.2,0,0.5,0.1,0.5,0.3l0.8,4.2c0,0.2-0.1,0.5-0.3,0.5l-2.5,0.5c-0.1,0.9-0.3,1.7-0.5,2.5l2.1,1.4
		c0.2,0.1,0.2,0.4,0.1,0.6l-2.5,3.6c-0.1,0.2-0.4,0.2-0.6,0.1L58,43.6c-0.7,0.6-1.4,1-2.2,1.4l0.5,2.5c0,0.2-0.1,0.5-0.3,0.5
		l-4.3,0.8c-0.2,0-0.5-0.1-0.5-0.3l-0.5-2.5c-0.9-0.1-1.7-0.2-2.6-0.5l-1.4,2.1C46.6,47.7,46.3,47.7,46.1,47.6"/>
	<path class="st0" d="M46.1,47.6l-3.6-2.4c-0.2-0.1-0.2-0.4-0.1-0.6l1.4-2.1c-0.6-0.7-1.1-1.4-1.4-2.2l-2.5,0.5
		c-0.2,0-0.5-0.1-0.5-0.3l-0.8-4.2c0-0.2,0.1-0.5,0.3-0.5l2.5-0.5c0.1-0.9,0.3-1.7,0.5-2.5L40,31.2c-0.2-0.1-0.2-0.4-0.1-0.6
		l2.5-3.6c0.1-0.2,0.4-0.2,0.6-0.1l2.1,1.4c0.7-0.6,1.4-1,2.2-1.4l-0.5-2.5c0-0.2,0.1-0.5,0.3-0.5l4.3-0.8c0.2,0,0.5,0.1,0.5,0.3
		l0.5,2.5c0.9,0.1,1.7,0.2,2.6,0.5l1.4-2.1c0.1-0.2,0.4-0.2,0.6-0.1l3.6,2.4c0.2,0.1,0.2,0.4,0.1,0.6l-1.4,2.1
		c0.6,0.7,1.1,1.4,1.4,2.2l2.5-0.5c0.2,0,0.5,0.1,0.5,0.3l0.8,4.2c0,0.2-0.1,0.5-0.3,0.5l-2.5,0.5c-0.1,0.9-0.3,1.7-0.5,2.5l2.1,1.4
		c0.2,0.1,0.2,0.4,0.1,0.6l-2.5,3.6c-0.1,0.2-0.4,0.2-0.6,0.1L58,43.6c-0.7,0.6-1.4,1-2.2,1.4l0.5,2.5c0,0.2-0.1,0.5-0.3,0.5
		l-4.3,0.8c-0.2,0-0.5-0.1-0.5-0.3l-0.5-2.5c-0.9-0.1-1.7-0.2-2.6-0.5l-1.4,2.1C46.6,47.7,46.3,47.7,46.1,47.6z"/>
	<path class="st1" d="M54.7,38.3c-1.3,1.8-3.8,2.2-5.6,0.9c-1.8-1.3-2.2-3.8-0.9-5.6c1.3-1.8,3.8-2.2,5.6-0.9
		C55.6,34,56,36.5,54.7,38.3z"/>
</g>
</svg>
