<?xml version="1.0" encoding="utf-8"?>
<!-- Generator: Adobe Illustrator 24.0.0, SVG Export Plug-In . SVG Version: 6.00 Build 0)  -->
<svg version="1.1" id="Livello_1" xmlns="http://www.w3.org/2000/svg" xmlns:xlink="http://www.w3.org/1999/xlink" x="0px" y="0px"
	 viewBox="0 0 182.9 48.3" style="enable-background:new 0 0 182.9 48.3;" xml:space="preserve">
<style type="text/css">
	.st0{fill-rule:evenodd;clip-rule:evenodd;stroke:#000000;stroke-width:0.5669;stroke-miterlimit:22.9256;}
	.st1{fill-rule:evenodd;clip-rule:evenodd;fill:#E3000F;}
	.st2{fill:none;}
	.st3{fill:#FFFFFF;}
</style>
<g id="background">
</g>
<rect y="0" class="st0" width="182.9" height="48.3"/>
<g>
	<g>
		<path class="st1" d="M25.4,24.3c2.4,0,4.4,1.9,4.4,4.3c0,0.1,0,0.2,0,0.3l0,1.1l1,0.4c1.2,0.4,2,1.5,2,2.8c0,1.6-1.3,2.9-2.9,2.9
			H15.2c-1.6,0-2.9-1.3-2.9-2.9c0-1.6,1.3-2.9,2.9-2.9c0.1,0,0.1,0,0.2,0l1.1,0.1l0.4-1.1c0.4-1.2,1.5-2,2.8-2c0.1,0,0.3,0,0.5,0.1
			l1,0.2l0.5-0.9C22.4,25.1,23.9,24.3,25.4,24.3L25.4,24.3L25.4,24.3z M25.4,22.8c-2.2,0-4.1,1.2-5.1,3c-0.3,0-0.5-0.1-0.8-0.1
			c-1.9,0-3.5,1.2-4.1,3c-0.1,0-0.2,0-0.3,0c-2.4,0-4.4,2-4.4,4.4c0,2.4,2,4.4,4.4,4.4h14.7c2.4,0,4.4-2,4.4-4.4
			c0-1.9-1.2-3.5-3-4.1c0-0.1,0-0.2,0-0.3C31.3,25.4,28.7,22.8,25.4,22.8L25.4,22.8z"/>
	</g>
</g>
<path class="st1" d="M22.6,9.3c0.3,0,0.5,0,0.8,0c9.3,0,18.6,0,27.9,0c0.7,0,1.4-0.1,2,0.2c1.1,0.4,1.9,1.6,1.9,2.8
	c0,7.3,0,14.7,0,22c0,1.2-0.7,2.3-1.8,2.8c-0.4,0.2-0.9,0.3-1.4,0.3c-5.5,0-10.9,0-16.4,0c-0.4,0-0.8-0.4-0.8-0.8
	c0-0.4,0.4-0.8,0.8-0.8c5.5,0,11,0,16.5,0c0.8,0,1.4-0.7,1.4-1.5c0-7.1,0-14.3,0-21.4c0-0.5,0.1-0.9-0.2-1.4
	c-0.3-0.5-0.8-0.8-1.4-0.8c-9.7,0-19.4,0-29.1,0c-0.8,0-1.5,0.7-1.5,1.5c0,3.2,0,6.4,0,9.6c0,0.3-0.2,0.6-0.5,0.8
	c-0.4,0.2-0.8,0-1-0.4C20,22.2,20,22,20,21.8c0-3.2,0-6.4,0-9.6C20,10.8,21.2,9.5,22.6,9.3z"/>
<g>
	<g>
		<path class="st2" d="M148.5,19.4c-1.7,0-3,0.5-4,1.5c-1,1-1.5,2.5-1.7,4.5H154c0-1.9-0.5-3.4-1.5-4.4
			C151.6,19.9,150.2,19.4,148.5,19.4z"/>
		<path class="st2" d="M105,19.4c-1.7,0-3,0.5-4,1.5c-1,1-1.5,2.5-1.7,4.5h11.2c0-1.9-0.5-3.4-1.5-4.4
			C108.1,19.9,106.8,19.4,105,19.4z"/>
		<rect x="87.4" y="9.3" class="st3" width="3.6" height="18.5"/>
		<path class="st3" d="M108.7,33.9c-0.9,0.7-2.1,1.1-3.5,1.1c-1.8,0-3.3-0.6-4.3-1.8c-0.6-0.7-1.1-1.7-1.4-2.8H96
			c0.4,1.9,1.1,3.5,2.2,4.8c1.6,1.9,3.9,2.9,6.7,2.9c2.4,0,4.4-0.7,6-2c1.6-1.3,2.6-3.1,2.9-5.3h-3.4
			C110.2,32.2,109.6,33.2,108.7,33.9z"/>
		<rect x="68.8" y="30.4" class="st3" width="3.6" height="7"/>
		<path class="st3" d="M73,9.3h-4.2v18.5h3.6V14.6c0.1,0.4,0.3,0.7,0.5,1.1c0.2,0.3,0.4,0.7,0.6,1l7.2,11.1h4.2L73,9.3z"/>
		<path class="st3" d="M104.9,16.3c-2.9,0-5.1,1-6.8,2.9c-1.6,2-2.4,4.7-2.4,8.2l0,0.4h18.4c0-0.1,0-0.1,0-0.2c0-0.2,0-0.5,0-0.9
			c0-3.3-0.8-5.9-2.4-7.7C110.1,17.2,107.8,16.3,104.9,16.3z M99.3,25.4c0.2-2,0.7-3.4,1.7-4.5c1-1,2.3-1.5,4-1.5
			c1.8,0,3.1,0.5,4.1,1.6c1,1,1.4,2.5,1.5,4.4H99.3z"/>
		<path class="st3" d="M148.3,16.3c-2.9,0-5.1,1-6.8,2.9c-1.6,2-2.4,4.7-2.4,8.2l0,0.4h18.4c0-0.1,0-0.1,0-0.2c0-0.2,0-0.5,0-0.9
			c0-3.3-0.8-5.9-2.4-7.7C153.6,17.2,151.3,16.3,148.3,16.3z M142.7,25.4c0.2-2,0.7-3.4,1.7-4.5c1-1,2.3-1.5,4-1.5
			c1.8,0,3.1,0.5,4.1,1.6c1,1,1.4,2.5,1.5,4.4H142.7z"/>
		<rect x="161.5" y="30.4" class="st3" width="3.4" height="7"/>
		<path class="st3" d="M152.1,33.9c-0.9,0.7-2.1,1.1-3.5,1.1c-1.8,0-3.3-0.6-4.3-1.8c-0.6-0.7-1.1-1.7-1.4-2.8h-3.6
			c0.4,1.9,1.1,3.5,2.2,4.8c1.6,1.9,3.9,2.9,6.7,2.9c2.4,0,4.4-0.7,6-2c1.6-1.3,2.6-3.1,2.9-5.3h-3.4
			C153.6,32.2,153.1,33.2,152.1,33.9z"/>
		<path class="st3" d="M124,34.6c-0.7,0-1.2-0.1-1.4-0.5c-0.3-0.3-0.4-0.9-0.4-1.8v-1.9h-3.4v3c0,1.6,0.3,2.7,1,3.3
			c0.7,0.6,1.8,0.9,3.4,0.9c0.4,0,0.8,0,1.2-0.1c0.5-0.1,1-0.1,1.5-0.2v-2.9c-0.5,0-0.8,0.1-1.1,0.1C124.4,34.6,124.2,34.6,124,34.6
			z"/>
		<path class="st3" d="M171.1,16.6c-0.1,0-0.3,0-0.6,0c-1.4,0-2.5,0.3-3.4,1c-0.9,0.7-1.7,1.7-2.2,3.1V17h-3.3v10.8h3.4v-1.7
			c0-1.9,0.5-3.4,1.4-4.4c1-1,2.4-1.5,4.2-1.5c0.2,0,0.4,0,0.5,0c0.1,0,0.2,0,0.3,0v-3.6C171.3,16.6,171.2,16.6,171.1,16.6z"/>
		<polygon class="st3" points="122.1,11.3 118.7,11.3 118.7,17 115.6,17 115.6,19.7 118.7,19.7 118.7,27.8 122.1,27.8 122.1,19.7 
			125.8,19.7 125.8,17 122.1,17 		"/>
		<path class="st3" d="M135,34.6c-0.7,0-1.2-0.1-1.4-0.5c-0.3-0.3-0.4-0.9-0.4-1.8v-1.9h-3.4v3c0,1.6,0.3,2.7,1,3.3
			c0.7,0.6,1.8,0.9,3.4,0.9c0.4,0,0.8,0,1.2-0.1c0.5-0.1,1-0.1,1.5-0.2v-2.9c-0.5,0-0.8,0.1-1.1,0.1C135.4,34.6,135.2,34.6,135,34.6
			z"/>
		<polygon class="st3" points="133.1,11.3 129.7,11.3 129.7,17 126.6,17 126.6,19.7 129.7,19.7 129.7,27.8 133.1,27.8 133.1,19.7 
			136.8,19.7 136.8,17 133.1,17 		"/>
	</g>
	<polygon class="st3" points="89,30.4 87.4,30.4 86.4,30.4 85.5,30.4 82.4,30.4 86.9,37.5 91.1,37.5 91.1,30.4 	"/>
</g>
</svg>
